<svg xmlns="http://www.w3.org/2000/svg" xmlns:xlink="http://www.w3.org/1999/xlink" width="1080" zoomAndPan="magnify" viewBox="0 0 810 809.999993" height="1080" preserveAspectRatio="xMidYMid meet" version="1.0"><defs><clipPath id="6c818cbe00"><path d="M 6 60.898438 L 804 60.898438 L 804 749.09375 L 6 749.09375 Z M 6 60.898438 " clip-rule="nonzero"/></clipPath><clipPath id="1848da5680"><path d="M 801.632812 411.480469 L 608.972656 742.613281 C 606.636719 746.625 602.34375 749.09375 597.703125 749.09375 L 212.296875 749.09375 C 207.652344 749.09375 203.359375 746.625 201.023438 742.613281 L 8.367188 411.480469 C 6.035156 407.472656 6.035156 402.523438 8.367188 398.515625 L 201.023438 67.382812 C 203.359375 63.371094 207.652344 60.898438 212.296875 60.898438 L 597.703125 60.898438 C 602.34375 60.898438 606.636719 63.371094 608.972656 67.382812 L 801.632812 398.515625 C 803.964844 402.523438 803.964844 407.472656 801.632812 411.480469 Z M 801.632812 411.480469 " clip-rule="nonzero"/></clipPath></defs><g clip-path="url(#6c818cbe00)"><g clip-path="url(#1848da5680)"><path stroke-linecap="butt" transform="matrix(0.75, 0, 0, 0.75, 4.594669, 60.900221)" fill="none" stroke-linejoin="miter" d="M 1062.717578 467.440354 L 805.837356 908.950793 C 802.722773 914.299751 796.998814 917.591418 790.811314 917.591418 L 276.936288 917.591418 C 270.743579 917.591418 265.019621 914.299751 261.905037 908.950793 L 5.030024 467.440354 C 1.920649 462.096604 1.920649 455.497645 5.030024 450.153895 L 261.905037 8.643456 C 265.019621 3.294497 270.743579 -0.00237792 276.936288 -0.00237792 L 790.811314 -0.00237792 C 796.998814 -0.00237792 802.722773 3.294497 805.837356 8.643456 L 1062.717578 450.153895 C 1065.826953 455.497645 1065.826953 462.096604 1062.717578 467.440354 Z M 1062.717578 467.440354 " stroke="#7b74ff" stroke-width="700" stroke-opacity="1" stroke-miterlimit="4"/></g></g></svg>