<?xml version="1.0" encoding="UTF-8" standalone="no"?>
<!DOCTYPE svg PUBLIC "-//W3C//DTD SVG 20010904//EN"
              "http://www.w3.org/TR/2001/REC-SVG-20010904/DTD/svg10.dtd">

<svg xmlns="http://www.w3.org/2000/svg"
     width="5.21111in" height="5.21111in"
     viewBox="0 0 469 469">
  <path id="Selection"
        fill="none" stroke="black" stroke-width="1"
        d="M 149.13,380.84
           C 149.13,380.84 319.86,380.83 319.86,380.83
             319.86,380.83 365.82,300.16 365.82,300.16
             365.82,300.16 371.45,300.16 371.45,300.16
             371.45,300.16 322.67,384.58 322.67,384.58
             322.67,384.58 146.34,384.57 146.34,384.57
             146.34,384.57 59.09,234.50 59.09,234.50
             59.09,234.50 146.33,84.42 146.33,84.42
             146.33,84.42 322.67,84.42 322.67,84.42
             322.67,84.42 389.27,200.73 389.27,200.73
             389.27,200.73 384.58,200.73 384.58,200.73
             384.58,200.73 319.85,88.17 319.85,88.17
             319.85,88.17 149.14,88.17 149.14,88.17
             149.14,88.17 64.70,234.50 64.70,234.50
             64.70,234.50 149.13,380.84 149.13,380.84 Z
           M 228.87,216.24
           C 236.78,214.93 244.40,215.70 249.70,222.47
             257.54,232.47 252.86,249.73 240.13,252.76
             232.68,254.54 224.16,252.73 219.30,246.53
             216.62,243.12 215.84,239.68 215.76,235.44
             215.54,225.60 219.19,219.26 228.87,216.24 Z" />
</svg>
