<?xml version="1.0" encoding="utf-8"?>
<svg viewBox="44.005 47.085 514.99 305.391" xmlns="http://www.w3.org/2000/svg">
  <path id="Path #1" stroke="black" stroke-width="1" d="M 303.38,238.06 C 303.38,238.06 297.66,238.06 297.66,238.06 297.14,238.06 296.73,238.44 296.73,238.95 296.73,238.95 296.73,242.56 296.73,242.56 296.73,243.05 297.14,243.45 297.66,243.45 297.66,243.45 301.70,243.45 301.70,243.45 302.19,243.00 302.59,242.61 302.59,242.11 302.59,241.61 302.19,241.20 301.70,241.20 301.70,241.20 298.55,241.20 298.55,241.20 298.55,241.20 298.55,239.80 298.55,239.80 298.55,239.80 303.38,239.80 303.38,239.80 303.89,239.80 304.30,239.39 304.30,238.91 304.30,238.39 303.89,238.00 303.38,238.00 303.38,238.00 303.38,238.06 303.38,238.06 Z M 301.70,245.00 C 301.70,245.00 297.66,245.00 297.66,245.00 297.14,245.00 296.73,245.41 296.73,245.91 296.73,245.91 296.73,253.12 296.73,253.12 296.73,253.61 297.14,254.00 297.66,254.00 298.14,254.00 298.55,253.61 298.55,253.12 298.55,253.12 298.55,246.81 298.55,246.81 298.55,246.81 301.70,246.81 301.70,246.81 302.19,246.81 302.59,246.41 302.59,245.91 302.59,245.41 302.19,245.00 301.70,245.00 Z M 294.94,253.12 C 294.94,253.12 294.94,235.81 294.94,235.81 294.94,235.81 303.38,235.81 303.38,235.81 303.89,235.81 304.30,235.41 304.30,234.91 304.30,234.41 303.89,234.00 303.38,234.00 303.38,234.00 294.05,234.00 294.05,234.00 293.53,234.00 293.16,234.41 293.16,234.91 293.16,234.91 293.16,253.12 293.16,253.12 293.16,253.61 293.53,254.00 294.05,254.00 294.53,254.00 294.94,253.61 294.94,253.12 Z M 314.88,243.00 C 316.36,243.00 317.59,241.84 317.59,240.39 317.59,239.09 316.52,237.80 314.88,237.80 314.88,237.80 311.66,237.80 311.66,237.80 310.47,237.80 310.47,239.50 311.66,239.50 311.66,239.50 314.88,239.50 314.88,239.50 315.39,239.50 315.81,239.86 315.81,240.36 315.81,241.36 314.81,241.22 313.98,241.22 312.52,241.22 312.58,242.92 313.98,243.00 314.28,243.03 314.62,243.00 314.88,243.00 Z M 316.55,252.41 C 316.55,252.41 312.42,246.48 312.42,246.48 311.91,245.81 310.77,246.08 310.77,247.06 310.77,247.06 310.77,252.94 310.77,252.94 310.77,254.12 312.58,254.12 312.58,252.94 312.58,252.94 312.58,249.86 312.58,249.86 312.58,249.86 315.06,253.45 315.06,253.45 315.77,254.42 317.22,253.38 316.55,252.41 Z M 308.95,252.94 C 308.95,252.94 308.95,236.00 308.95,236.00 308.95,236.00 315.17,236.00 315.17,236.00 316.39,236.00 317.48,236.50 318.30,237.30 321.08,239.98 319.14,244.81 315.17,244.81 314.50,244.81 313.95,245.59 314.50,246.30 314.50,246.30 319.48,253.45 319.48,253.45 320.14,254.42 321.62,253.38 320.94,252.41 320.94,252.41 316.77,246.41 316.77,246.41 317.84,246.14 318.81,245.55 319.59,244.77 323.48,240.55 320.70,234.00 315.17,234.00 315.17,234.00 308.06,234.00 308.06,234.00 307.58,234.00 307.16,234.41 307.16,234.91 307.16,234.91 307.16,253.12 307.16,253.12 307.16,254.33 308.95,254.33 308.95,253.12 308.95,253.12 308.95,252.94 308.95,252.94 Z M 343.72,241.28 C 343.05,239.33 341.70,237.45 339.94,236.00 338.19,234.73 336.08,234.00 333.77,234.00 320.08,234.00 320.08,254.00 333.77,254.00 336.08,254.00 338.19,253.25 339.94,252.00 341.70,250.56 343.05,248.66 343.72,246.73 343.86,246.31 343.61,245.83 343.12,245.72 342.64,245.59 342.11,245.81 341.97,246.23 341.41,247.80 340.31,249.22 338.83,250.31 337.44,251.47 335.67,252.14 333.77,252.14 322.50,252.14 322.50,235.84 333.77,235.84 335.67,235.84 337.44,236.55 338.83,237.67 340.31,238.80 341.41,240.22 341.97,241.75 342.11,242.19 342.64,242.42 343.12,242.28 343.61,242.16 343.86,241.70 343.72,241.28 Z M 328.20,246.89 C 328.77,247.77 329.58,248.55 330.55,249.14 331.52,249.69 332.62,250.00 333.77,250.00 335.56,250.00 337.19,249.28 338.38,248.08 339.52,247.03 340.23,245.59 340.23,244.00 340.23,242.39 339.52,240.97 338.38,239.92 337.19,238.73 335.56,238.00 333.77,238.00 332.62,238.00 331.52,238.31 330.55,238.88 329.58,239.44 328.77,240.22 328.20,241.11 327.94,241.52 328.09,242.02 328.53,242.23 328.98,242.44 329.52,242.30 329.77,241.89 330.20,241.28 330.80,240.75 331.50,240.39 332.17,240.03 332.92,239.84 333.77,239.84 335.06,239.84 336.22,240.33 337.03,241.06 337.89,241.80 338.41,242.84 338.41,244.00 338.41,245.17 337.89,246.22 337.03,246.95 336.22,247.72 335.06,248.17 333.77,248.17 332.92,248.17 332.14,247.95 331.50,247.59 330.80,247.27 330.20,246.72 329.77,246.09 329.52,245.69 328.98,245.58 328.53,245.78 328.09,246.03 327.94,246.48 328.20,246.89 Z M 363.41,253.09 C 363.41,253.09 363.41,241.75 363.41,241.75 363.41,241.27 363.00,240.88 362.48,240.88 362.16,240.88 361.89,241.03 361.73,241.27 361.73,241.27 357.08,247.84 357.08,247.84 357.08,247.84 352.50,241.25 352.50,241.25 352.20,240.84 351.61,240.73 351.20,241.03 350.95,241.19 350.83,241.48 350.83,241.75 350.83,241.75 350.83,253.09 350.83,253.09 350.83,253.61 351.23,254.00 351.72,254.00 352.25,254.00 352.66,253.61 352.66,253.09 352.66,253.09 352.66,244.66 352.66,244.66 352.66,244.66 356.36,249.94 356.36,249.94 356.41,250.02 356.48,250.09 356.58,250.17 356.98,250.44 357.58,250.33 357.88,249.94 357.88,249.94 361.56,244.66 361.56,244.66 361.56,244.66 361.56,253.09 361.56,253.09 361.56,253.61 361.97,254.00 362.48,254.00 363.00,254.00 363.41,253.61 363.41,253.09 Z M 348.98,253.09 C 348.98,253.09 348.98,234.92 348.98,234.92 348.98,234.41 348.58,234.00 348.06,234.00 347.56,234.00 347.16,234.41 347.16,234.92 347.16,234.92 347.16,253.09 347.16,253.09 347.16,253.61 347.56,254.00 348.06,254.00 348.58,254.00 348.98,253.61 348.98,253.09 Z M 367.08,253.09 C 367.08,253.09 367.08,234.92 367.08,234.92 367.08,234.41 366.67,234.00 366.12,234.00 365.64,234.00 365.23,234.41 365.23,234.92 365.23,234.92 365.23,253.09 365.23,253.09 365.23,253.61 365.64,254.00 366.12,254.00 366.67,254.00 367.08,253.61 367.08,253.09 Z M 362.08,234.39 C 362.08,234.39 357.08,241.48 357.08,241.48 357.08,241.48 352.14,234.39 352.14,234.39 351.84,233.98 351.25,233.88 350.84,234.17 350.44,234.47 350.36,235.03 350.64,235.42 350.64,235.42 356.36,243.55 356.36,243.55 356.41,243.66 356.48,243.73 356.58,243.80 356.98,244.11 357.58,244.00 357.88,243.58 357.88,243.58 363.59,235.42 363.59,235.42 363.86,235.03 363.78,234.47 363.38,234.17 362.94,233.88 362.38,233.98 362.08,234.39 Z M 398.72,241.28 C 398.05,239.33 396.70,237.45 394.94,236.00 393.19,234.73 391.08,234.00 388.77,234.00 375.08,234.00 375.08,254.00 388.77,254.00 391.08,254.00 393.19,253.25 394.94,252.00 396.70,250.56 398.05,248.66 398.72,246.73 398.86,246.31 398.61,245.83 398.12,245.72 397.64,245.59 397.11,245.81 396.97,246.23 396.41,247.80 395.31,249.22 393.83,250.31 392.44,251.47 390.67,252.14 388.77,252.14 377.50,252.14 377.50,235.84 388.77,235.84 390.67,235.84 392.44,236.55 393.83,237.67 395.31,238.80 396.41,240.22 396.97,241.75 397.11,242.19 397.64,242.42 398.12,242.28 398.61,242.16 398.86,241.70 398.72,241.28 Z M 383.20,246.89 C 383.77,247.77 384.58,248.55 385.55,249.14 386.52,249.69 387.62,250.00 388.77,250.00 390.56,250.00 392.19,249.28 393.38,248.08 394.52,247.03 395.23,245.59 395.23,244.00 395.23,242.39 394.52,240.97 393.38,239.92 392.19,238.73 390.56,238.00 388.77,238.00 387.62,238.00 386.52,238.31 385.55,238.88 384.58,239.44 383.77,240.22 383.20,241.11 382.94,241.52 383.09,242.02 383.53,242.23 383.98,242.44 384.52,242.30 384.77,241.89 385.20,241.28 385.80,240.75 386.50,240.39 387.17,240.03 387.92,239.84 388.77,239.84 390.06,239.84 391.22,240.33 392.03,241.06 392.89,241.80 393.41,242.84 393.41,244.00 393.41,245.17 392.89,246.22 392.03,246.95 391.22,247.72 390.06,248.17 388.77,248.17 387.92,248.17 387.14,247.95 386.50,247.59 385.80,247.27 385.20,246.72 384.77,246.09 384.52,245.69 383.98,245.58 383.53,245.78 383.09,246.03 382.94,246.48 383.20,246.89 Z M 405.73,246.48 C 405.73,251.73 413.55,251.73 413.55,246.48 413.55,246.48 413.55,234.92 413.55,234.92 413.55,234.41 413.14,234.00 412.66,234.00 412.11,234.00 411.73,234.41 411.73,234.92 411.73,234.92 411.73,246.48 411.73,246.48 411.73,249.34 407.55,249.34 407.55,246.48 407.55,246.48 407.55,234.92 407.55,234.92 407.55,234.41 407.14,234.00 406.62,234.00 406.14,234.00 405.73,234.41 405.73,234.92 405.73,234.92 405.73,246.48 405.73,246.48 Z M 417.22,246.69 C 417.22,246.69 417.22,234.92 417.22,234.92 417.22,234.41 416.81,234.00 416.33,234.00 415.81,234.00 415.44,234.41 415.44,234.92 415.44,234.92 415.44,246.69 415.44,246.69 415.44,254.25 403.86,254.25 403.86,246.69 403.86,246.69 403.86,234.92 403.86,234.92 403.86,234.41 403.45,234.00 402.94,234.00 402.45,234.00 402.05,234.41 402.05,234.92 402.05,234.92 402.05,246.69 402.05,246.69 402.05,256.58 417.22,256.59 417.22,246.69 Z M 433.06,238.06 C 433.06,238.06 428.52,238.06 428.52,238.06 428.03,238.06 427.62,238.45 427.62,238.97 427.62,238.97 427.62,253.36 427.62,253.36 427.62,253.88 428.03,254.28 428.52,254.28 429.03,254.28 429.44,253.88 429.44,253.36 429.44,253.36 429.44,239.84 429.44,239.84 429.44,239.84 433.06,239.84 433.06,239.84 433.55,239.80 433.92,239.41 433.92,238.92 433.92,238.41 433.55,238.00 433.06,238.00 433.06,238.00 433.06,238.06 433.06,238.06 Z M 420.45,236.00 C 420.45,236.00 433.06,236.00 433.06,236.00 433.55,236.00 433.92,235.61 433.92,235.11 433.92,234.61 433.55,234.22 433.06,234.22 433.06,234.22 420.45,234.22 420.45,234.22 419.94,234.22 419.53,234.61 419.53,235.11 419.53,235.61 419.94,236.00 420.45,236.00 Z M 420.45,239.80 C 420.45,239.80 424.02,239.80 424.02,239.80 424.02,239.80 424.02,253.11 424.02,253.11 424.02,253.61 424.44,254.00 424.94,254.00 425.44,254.00 425.84,253.61 425.84,253.11 425.84,253.11 425.84,238.92 425.84,238.92 425.84,238.41 425.44,238.00 424.94,238.00 424.94,238.00 420.45,238.00 420.45,238.00 419.94,238.00 419.53,238.41 419.53,238.92 419.53,239.41 419.94,239.80 420.45,239.80 Z M 447.38,238.06 C 447.38,238.06 441.66,238.06 441.66,238.06 441.14,238.06 440.73,238.44 440.73,238.95 440.73,238.95 440.73,242.56 440.73,242.56 440.73,243.05 441.14,243.45 441.66,243.45 441.66,243.45 445.70,243.45 445.70,243.45 446.22,243.00 446.62,242.61 446.62,242.11 446.62,241.61 446.22,241.20 445.70,241.20 445.70,241.20 442.55,241.20 442.55,241.20 442.55,241.20 442.55,239.80 442.55,239.80 442.55,239.80 447.38,239.80 447.38,239.80 447.89,239.80 448.30,239.39 448.30,238.91 448.30,238.39 447.89,238.00 447.38,238.00 447.38,238.00 447.38,238.06 447.38,238.06 Z M 445.70,245.00 C 445.70,245.00 441.66,245.00 441.66,245.00 441.14,245.00 440.73,245.41 440.73,245.91 440.73,245.91 440.73,249.11 440.73,249.11 440.73,249.61 441.14,250.00 441.66,250.00 441.66,250.00 447.38,250.00 447.38,250.00 447.89,250.00 448.30,249.61 448.30,249.11 448.30,248.61 447.89,248.20 447.38,248.20 447.38,248.20 442.55,248.20 442.55,248.20 442.55,248.20 442.55,246.81 442.55,246.81 442.55,246.81 445.70,246.81 445.70,246.81 446.22,246.81 446.62,246.41 446.62,245.91 446.62,245.41 446.22,245.00 445.70,245.00 Z M 447.38,252.20 C 447.38,252.20 438.95,252.20 438.95,252.20 438.95,252.20 438.95,235.81 438.95,235.81 438.95,235.81 447.38,235.81 447.38,235.81 447.89,235.81 448.30,235.41 448.30,234.91 448.30,234.41 447.89,234.00 447.38,234.00 447.38,234.00 438.05,234.00 438.05,234.00 437.56,234.00 437.16,234.41 437.16,234.91 437.16,234.91 437.16,253.11 437.16,253.11 437.16,253.61 437.56,254.00 438.05,254.00 438.05,254.00 447.38,254.00 447.38,254.00 447.89,254.00 448.30,253.61 448.30,253.11 448.30,252.61 447.89,252.20 447.38,252.20 Z M 459.88,243.00 C 461.36,243.00 462.59,241.84 462.59,240.39 462.59,239.09 461.52,237.80 459.88,237.80 459.88,237.80 456.66,237.80 456.66,237.80 455.47,237.80 455.47,239.50 456.66,239.50 456.66,239.50 459.88,239.50 459.88,239.50 460.39,239.50 460.81,239.86 460.81,240.36 460.81,241.36 459.81,241.22 458.98,241.22 457.52,241.22 457.58,242.92 458.98,243.00 459.28,243.03 459.62,243.00 459.88,243.00 Z M 461.55,252.41 C 461.55,252.41 457.42,246.48 457.42,246.48 456.91,245.81 455.77,246.08 455.77,247.06 455.77,247.06 455.77,252.94 455.77,252.94 455.77,254.12 457.58,254.12 457.58,252.94 457.58,252.94 457.58,249.86 457.58,249.86 457.58,249.86 460.06,253.45 460.06,253.45 460.77,254.42 462.22,253.38 461.55,252.41 Z M 453.95,252.94 C 453.95,252.94 453.95,236.00 453.95,236.00 453.95,236.00 460.17,236.00 460.17,236.00 461.39,236.00 462.48,236.50 463.30,237.30 466.08,239.98 464.14,244.81 460.17,244.81 459.50,244.81 458.95,245.59 459.50,246.30 459.50,246.30 464.48,253.45 464.48,253.45 465.14,254.42 466.62,253.38 465.94,252.41 465.94,252.41 461.77,246.41 461.77,246.41 462.84,246.14 463.81,245.55 464.59,244.77 468.48,240.55 465.70,234.00 460.17,234.00 460.17,234.00 453.06,234.00 453.06,234.00 452.58,234.00 452.16,234.41 452.16,234.91 452.16,234.91 452.16,253.12 452.16,253.12 452.16,254.33 453.95,254.33 453.95,253.12 453.95,253.12 453.95,252.94 453.95,252.94 Z M 487.28,235.14 C 485.39,234.48 484.06,234.28 482.44,234.36 476.88,234.62 474.50,241.45 478.42,244.89 480.94,247.08 483.61,246.86 483.70,248.12 483.88,249.47 480.23,249.20 478.16,247.69 477.20,247.02 476.16,248.47 477.09,249.16 478.88,250.44 481.06,250.88 482.81,250.77 484.28,250.66 485.59,249.55 485.52,248.05 485.33,245.19 481.98,245.64 479.64,243.53 477.69,241.86 478.06,239.03 479.53,237.48 481.31,235.52 484.22,235.98 486.66,236.84 487.78,237.25 488.38,235.52 487.28,235.14 Z M 476.75,252.98 C 477.80,253.55 478.86,253.91 479.77,254.09 484.81,255.30 489.19,252.98 489.19,248.05 489.19,243.02 483.28,241.94 482.28,241.19 481.39,240.48 482.09,238.81 486.17,240.45 487.28,240.92 487.92,239.25 486.88,238.81 480.14,236.08 479.02,240.86 481.17,242.56 482.55,243.67 487.41,244.34 487.41,248.05 487.41,253.03 481.77,253.61 477.61,251.39 476.56,250.84 475.72,252.44 476.75,252.98 Z M 499.84,243.80 C 503.47,243.80 503.47,238.00 499.84,238.00 499.84,238.00 496.66,238.00 496.66,238.00 495.47,238.00 495.47,239.81 496.66,239.81 496.66,239.81 499.84,239.81 499.84,239.81 501.09,239.81 501.09,242.00 499.84,242.00 499.14,242.00 497.92,241.75 497.92,242.91 497.92,243.94 499.14,243.80 499.84,243.80 Z M 493.95,253.30 C 493.95,253.30 493.95,236.00 493.95,236.00 493.95,236.00 500.17,236.00 500.17,236.00 505.97,236.00 505.97,245.20 500.17,245.20 500.17,245.20 496.66,245.20 496.66,245.20 496.17,245.20 495.73,245.61 495.73,246.09 495.73,246.09 495.73,253.30 495.73,253.30 495.73,254.48 497.58,254.48 497.58,253.30 497.58,253.30 497.58,247.00 497.58,247.00 497.58,247.00 500.17,247.00 500.17,247.00 508.31,247.00 508.34,234.22 500.17,234.22 500.17,234.22 493.05,234.22 493.05,234.22 492.56,234.22 492.16,234.61 492.16,235.14 492.16,235.14 492.16,253.30 492.16,253.30 492.16,254.48 493.95,254.48 493.95,253.30 Z M 513.36,248.81 C 513.36,248.81 515.98,248.81 515.98,248.81 516.50,248.81 516.92,248.41 516.92,247.91 516.92,247.77 516.89,247.66 516.84,247.55 516.84,247.55 515.52,244.31 515.52,244.31 515.33,243.88 514.81,243.66 514.33,243.84 513.91,244.02 513.69,244.55 513.84,245.02 513.84,245.02 514.66,247.00 514.66,247.00 514.66,247.00 513.36,247.00 513.36,247.00 512.88,247.00 512.47,247.39 512.47,247.91 512.47,248.41 512.88,248.81 513.36,248.81 Z M 512.03,253.89 C 512.03,253.89 512.50,252.84 512.50,252.84 512.50,252.84 516.88,252.84 516.88,252.84 516.88,252.84 517.30,253.89 517.30,253.89 517.48,254.38 518.03,254.58 518.48,254.41 518.95,254.19 519.14,253.69 518.97,253.22 518.97,253.22 518.33,251.66 518.33,251.66 518.22,251.31 517.88,251.00 517.47,251.00 517.47,251.00 511.88,251.00 511.88,251.00 511.55,251.00 511.20,251.25 511.05,251.58 511.05,251.58 510.39,253.22 510.39,253.22 510.20,253.69 510.42,254.19 510.88,254.41 511.36,254.58 511.88,254.36 512.03,253.89 Z M 508.17,253.89 C 508.17,253.89 514.69,237.09 514.69,237.09 514.69,237.09 521.19,253.89 521.19,253.89 521.38,254.36 521.92,254.58 522.38,254.41 522.83,254.19 523.05,253.69 522.86,253.22 522.86,253.22 515.52,234.41 515.52,234.41 515.44,234.19 515.28,233.97 515.00,233.89 514.58,233.70 514.03,233.92 513.84,234.41 513.84,234.41 506.48,253.22 506.48,253.22 506.31,253.69 506.56,254.19 506.98,254.41 507.45,254.58 507.97,254.36 508.17,253.89 Z M 538.44,234.80 C 537.16,234.28 535.81,234.00 534.44,234.00 527.64,234.00 524.27,238.97 524.28,243.83 524.31,248.62 527.72,254.00 534.44,254.00 535.81,254.00 537.16,253.73 538.44,253.22 539.52,252.80 538.84,250.92 537.73,251.47 536.67,251.94 535.59,252.22 534.44,252.22 528.91,252.22 526.06,247.80 526.05,243.77 526.05,239.27 529.50,235.80 534.36,235.80 535.52,235.80 536.66,236.00 537.73,236.42 538.84,236.84 539.52,235.25 538.44,234.80 Z M 537.19,247.53 C 536.27,248.02 535.28,248.22 534.33,248.20 532.00,248.12 529.92,246.59 529.92,243.77 529.92,239.78 534.06,238.33 537.19,239.95 538.22,240.52 539.08,239.02 538.03,238.50 533.66,236.17 528.14,238.50 528.14,243.77 528.14,247.56 531.06,249.95 534.36,250.00 535.59,250.05 536.86,249.73 538.03,249.06 539.08,248.50 538.22,247.02 537.19,247.53 Z M 552.38,238.06 C 552.38,238.06 546.66,238.06 546.66,238.06 546.14,238.06 545.73,238.44 545.73,238.95 545.73,238.95 545.73,242.56 545.73,242.56 545.73,243.05 546.14,243.45 546.66,243.45 546.66,243.45 550.70,243.45 550.70,243.45 551.22,243.00 551.62,242.61 551.62,242.11 551.62,241.61 551.22,241.20 550.70,241.20 550.70,241.20 547.55,241.20 547.55,241.20 547.55,241.20 547.55,239.80 547.55,239.80 547.55,239.80 552.38,239.80 552.38,239.80 552.89,239.80 553.30,239.39 553.30,238.91 553.30,238.39 552.89,238.00 552.38,238.00 552.38,238.00 552.38,238.06 552.38,238.06 Z M 550.70,245.00 C 550.70,245.00 546.66,245.00 546.66,245.00 546.14,245.00 545.73,245.41 545.73,245.91 545.73,245.91 545.73,249.11 545.73,249.11 545.73,249.61 546.14,250.00 546.66,250.00 546.66,250.00 552.38,250.00 552.38,250.00 552.89,250.00 553.30,249.61 553.30,249.11 553.30,248.61 552.89,248.20 552.38,248.20 552.38,248.20 547.55,248.20 547.55,248.20 547.55,248.20 547.55,246.81 547.55,246.81 547.55,246.81 550.70,246.81 550.70,246.81 551.22,246.81 551.62,246.41 551.62,245.91 551.62,245.41 551.22,245.00 550.70,245.00 Z M 552.38,252.20 C 552.38,252.20 543.95,252.20 543.95,252.20 543.95,252.20 543.95,235.81 543.95,235.81 543.95,235.81 552.38,235.81 552.38,235.81 552.89,235.81 553.30,235.41 553.30,234.91 553.30,234.41 552.89,234.00 552.38,234.00 552.38,234.00 543.05,234.00 543.05,234.00 542.56,234.00 542.16,234.41 542.16,234.91 542.16,234.91 542.16,253.11 542.16,253.11 542.16,253.61 542.56,254.00 543.05,254.00 543.05,254.00 552.38,254.00 552.38,254.00 552.89,254.00 553.30,253.61 553.30,253.11 553.30,252.61 552.89,252.20 552.38,252.20 Z M 146.59,199.78 C 146.59,199.78 165.41,221.00 165.41,221.00 165.41,221.00 167.39,221.00 167.39,221.00 167.39,221.00 167.39,182.84 167.39,182.84 167.39,182.84 159.91,182.84 159.91,182.84 159.91,182.84 159.91,204.00 159.91,204.00 159.91,204.00 141.12,182.00 141.12,182.00 141.12,182.00 139.16,182.00 139.16,182.00 139.16,182.00 139.16,220.22 139.16,220.22 139.16,220.22 146.59,220.22 146.59,220.22 146.59,220.22 146.59,199.78 146.59,199.78 Z M 195.39,220.00 C 195.39,220.00 195.39,212.58 195.39,212.58 195.39,212.58 183.59,212.58 183.59,212.58 183.59,212.58 183.59,205.00 183.59,205.00 183.59,205.00 193.36,205.00 193.36,205.00 193.36,205.00 193.36,197.58 193.36,197.58 193.36,197.58 183.59,197.58 183.59,197.58 183.59,197.58 183.59,190.00 183.59,190.00 183.59,190.00 194.77,190.00 194.77,190.00 194.77,190.00 194.77,182.58 194.77,182.58 194.77,182.58 176.16,182.58 176.16,182.58 176.16,182.58 176.16,220.00 176.16,220.00 176.16,220.00 195.39,220.00 195.39,220.00 Z M 289.09,220.00 C 289.09,220.00 280.45,204.86 280.45,204.86 291.38,201.69 290.08,183.00 276.81,183.00 276.81,183.00 262.16,183.00 262.16,183.00 262.16,183.00 262.16,220.00 262.16,220.00 262.16,220.00 269.59,220.00 269.59,220.00 269.59,220.00 269.59,206.00 269.59,206.00 269.59,206.00 273.17,206.00 273.17,206.00 273.17,206.00 280.67,220.00 280.67,220.00 280.67,220.00 289.09,220.00 289.09,220.00 Z M 269.59,190.44 C 269.59,190.44 276.14,190.44 276.14,190.44 281.19,190.44 281.19,198.78 276.14,198.78 276.14,198.78 269.59,198.78 269.59,198.78 269.59,198.78 269.59,190.44 269.59,190.44 Z M 301.59,220.00 C 301.59,220.00 301.59,183.00 301.59,183.00 301.59,183.00 294.16,183.00 294.16,183.00 294.16,183.00 294.16,220.00 294.16,220.00 294.16,220.00 301.59,220.00 301.59,220.00 Z M 328.05,221.00 C 353.62,221.00 353.62,182.00 328.05,182.00 302.45,182.00 302.45,221.00 328.05,221.00 Z M 328.05,213.31 C 313.17,213.31 313.17,189.66 328.05,189.66 342.91,189.66 342.91,213.31 328.05,213.31 Z M 367.72,220.00 C 367.72,220.00 367.72,190.39 367.72,190.39 367.72,190.39 376.98,190.39 376.98,190.39 376.98,190.39 376.98,183.00 376.98,183.00 376.98,183.00 351.03,183.00 351.03,183.00 351.03,183.00 351.03,190.39 351.03,190.39 351.03,190.39 360.28,190.39 360.28,190.39 360.28,190.39 360.28,220.00 360.28,220.00 360.28,220.00 367.72,220.00 367.72,220.00 Z M 423.98,217.52 C 423.98,217.52 423.98,201.27 423.98,201.27 423.98,201.27 416.44,201.27 416.44,201.27 416.44,201.27 416.44,212.36 416.44,212.36 415.77,212.47 415.05,212.58 414.36,212.58 400.02,212.58 399.34,190.52 414.36,190.00 418.31,189.91 420.70,190.73 422.17,191.34 422.17,191.34 423.05,183.81 423.05,183.81 422.38,183.61 418.78,182.31 414.36,182.47 388.58,183.41 389.81,220.00 414.36,220.00 417.91,220.00 421.12,219.12 423.98,217.52 Z M 428.83,220.00 C 428.83,220.00 437.25,220.00 437.25,220.00 437.25,220.00 438.70,215.97 438.70,215.97 438.70,215.97 451.03,215.97 451.03,215.97 451.03,215.97 452.53,220.00 452.53,220.00 452.53,220.00 460.91,220.00 460.91,220.00 460.91,220.00 445.25,181.00 445.25,181.00 445.25,181.00 444.48,181.00 444.48,181.00 444.48,181.00 428.83,220.00 428.83,220.00 Z M 441.41,209.00 C 441.41,209.00 444.89,199.19 444.89,199.19 444.89,199.19 448.27,209.00 448.27,209.00 448.27,209.00 441.41,209.00 441.41,209.00 Z M 483.20,198.44 C 483.20,198.44 468.55,182.00 468.55,182.00 468.55,182.00 466.16,182.00 466.16,182.00 466.16,182.00 466.16,220.00 466.16,220.00 466.16,220.00 473.69,220.00 473.69,220.00 473.69,220.00 473.69,199.12 473.69,199.12 473.69,199.12 483.20,209.17 483.20,209.17 483.20,209.17 492.72,199.12 492.72,199.12 492.72,199.12 492.67,220.00 492.67,220.00 492.67,220.00 500.22,220.00 500.22,220.00 500.22,220.00 500.22,182.00 500.22,182.00 500.22,182.00 497.88,182.00 497.88,182.00 497.88,182.00 483.20,198.44 483.20,198.44 Z M 527.39,220.00 C 527.39,220.00 527.39,212.58 527.39,212.58 527.39,212.58 515.59,212.58 515.59,212.58 515.59,212.58 515.59,205.00 515.59,205.00 515.59,205.00 525.36,205.00 525.36,205.00 525.36,205.00 525.36,197.58 525.36,197.58 525.36,197.58 515.59,197.58 515.59,197.58 515.59,197.58 515.59,190.00 515.59,190.00 515.59,190.00 526.77,190.00 526.77,190.00 526.77,190.00 526.77,182.58 526.77,182.58 526.77,182.58 508.16,182.58 508.16,182.58 508.16,182.58 508.16,220.00 508.16,220.00 508.16,220.00 527.39,220.00 527.39,220.00 Z M 532.44,217.88 C 537.48,220.48 542.11,220.73 544.19,220.58 551.16,220.22 555.42,215.48 555.42,209.30 555.42,203.38 550.42,200.05 544.66,197.91 542.53,197.19 540.70,196.25 540.50,194.17 540.34,192.09 541.53,190.16 544.19,190.00 545.33,189.95 547.67,189.91 551.78,191.56 551.78,191.56 552.72,184.39 552.72,184.39 547.94,182.73 545.39,182.73 543.45,182.83 537.27,183.14 532.95,187.92 532.95,194.17 532.95,200.41 538.16,203.38 543.98,205.50 546.06,206.23 547.67,207.17 547.83,209.30 548.03,211.33 546.17,212.89 543.98,213.05 542.27,213.20 537.64,213.09 533.38,210.08 533.38,210.08 532.44,217.88 532.44,217.88 Z M 135.13,346.84 C 135.13,346.84 305.86,346.83 305.86,346.83 305.86,346.83 351.82,266.16 351.82,266.16 351.82,266.16 357.45,266.16 357.45,266.16 357.45,266.16 308.67,350.58 308.67,350.58 308.67,350.58 132.34,350.57 132.34,350.57 132.34,350.57 45.09,200.50 45.09,200.50 45.09,200.50 132.33,50.42 132.33,50.42 132.33,50.42 308.67,50.42 308.67,50.42 308.67,50.42 375.27,166.73 375.27,166.73 375.27,166.73 370.58,166.73 370.58,166.73 370.58,166.73 305.85,54.17 305.85,54.17 305.85,54.17 135.14,54.17 135.14,54.17 135.14,54.17 50.70,200.50 50.70,200.50 50.70,200.50 135.13,346.84 135.13,346.84 Z M 214.87,182.24 C 222.78,180.93 230.40,181.70 235.70,188.47 243.54,198.47 238.86,215.73 226.13,218.76 218.68,220.54 210.16,218.73 205.30,212.53 202.62,209.12 201.84,205.68 201.76,201.44 201.54,191.60 205.19,185.26 214.87,182.24 Z M 288.50,227.00" style="" transform="matrix(1, 0, 0, 1, 3.552713678800501e-15, 0)"/>
</svg>