<?xml version="1.0" encoding="utf-8"?>
<svg viewBox="0 0 500 500" xmlns="http://www.w3.org/2000/svg">
  <path id="Selection" stroke="black" stroke-width="1" d="M 136.866 472.255 C 136.866 472.255 393.6 472.241 393.6 472.241 C 393.6 472.241 462.719 350.933 462.719 350.933 C 462.719 350.933 471.181 350.933 471.181 350.933 C 471.181 350.933 397.832 477.882 397.832 477.882 C 397.832 477.882 132.664 477.869 132.664 477.869 C 132.664 477.869 1.467 252.194 1.467 252.194 C 1.467 252.194 132.649 26.507 132.649 26.507 C 132.649 26.507 397.832 26.507 397.832 26.507 C 397.832 26.507 497.982 201.416 497.982 201.416 C 497.982 201.416 490.928 201.416 490.928 201.416 C 490.928 201.416 393.587 32.148 393.587 32.148 C 393.587 32.148 136.88 32.148 136.88 32.148 C 136.88 32.148 9.903 252.194 9.903 252.194 C 9.903 252.194 136.866 472.255 136.866 472.255 Z M 256.778 224.731 C 268.668 222.77 280.122 223.927 288.091 234.097 C 299.884 249.147 292.846 275.102 273.704 279.658 C 262.505 282.324 249.697 279.615 242.389 270.293 C 238.355 265.156 237.184 259.98 237.059 253.605 C 236.734 238.808 242.22 229.273 256.778 224.731 Z" style=""/>
</svg>